<?xml version="1.0" standalone="no"?>
<!DOCTYPE svg PUBLIC "-//W3C//DTD SVG 20010904//EN"
 "http://www.w3.org/TR/2001/REC-SVG-20010904/DTD/svg10.dtd">
<svg version="1.0" xmlns="http://www.w3.org/2000/svg"
 width="300.000000pt" height="300.000000pt" viewBox="0 0 300.000000 300.000000"
 preserveAspectRatio="xMidYMid meet">
<metadata>
Created by potrace 1.11, written by Peter Selinger 2001-2013
</metadata>
<g transform="translate(0.000000,300.000000) scale(0.100000,-0.100000)"
fill="#000000" stroke="none">
<path d="M1946 2373 c-3 -8 -6 -16 -6 -17 0 -2 46 -6 103 -9 56 -4 113 -9 127
-12 14 -3 38 -8 55 -11 48 -9 157 -55 205 -87 192 -130 278 -342 285 -702 2
-99 0 -202 -5 -230 -5 -27 -12 -68 -15 -90 -17 -101 -86 -262 -152 -353 -37
-52 -119 -119 -183 -149 -30 -14 -93 -34 -140 -43 -78 -17 -169 -18 -1149 -19
-586 -1 -1066 -3 -1068 -5 -2 -2 -1 -10 2 -17 5 -12 167 -14 1123 -13 614 1
1126 4 1137 7 11 2 40 8 65 12 133 22 312 116 423 222 103 99 177 224 219 370
20 68 23 102 23 258 0 203 -3 230 -41 345 -85 256 -293 442 -579 516 -112 29
-152 34 -312 39 -90 2 -113 0 -117 -12z"/>
<path d="M0 2366 c0 -19 20 -22 143 -21 101 1 108 0 112 -20 2 -11 3 -363 3
-782 l-1 -763 -121 -1 c-67 -1 -124 -1 -128 0 -4 0 -6 -9 -5 -20 1 -19 6 -20
272 -17 239 3 270 5 273 19 3 14 -10 17 -90 17 -51 0 -109 1 -128 1 l-35 1 1
753 c1 413 2 757 3 762 1 6 32 -80 70 -190 38 -110 113 -326 166 -480 53 -154
135 -390 182 -525 47 -135 94 -272 105 -304 l21 -60 44 130 c25 71 69 199 98
284 30 85 77 223 105 305 29 83 85 247 127 365 41 118 76 222 78 230 11 42 89
260 92 256 6 -6 4 -1518 -1 -1524 -3 -3 -60 -4 -126 -3 -113 1 -120 0 -120
-18 0 -20 8 -20 367 -18 334 2 368 4 371 19 3 14 -10 16 -105 16 -59 0 -117 1
-128 1 -20 1 -20 8 -20 780 0 772 0 780 20 783 11 2 68 3 128 3 97 -1 107 1
107 17 0 17 -15 18 -257 16 l-257 -3 -7 -25 c-4 -14 -57 -171 -119 -350 -125
-365 -190 -553 -245 -715 -20 -60 -41 -116 -45 -123 -4 -8 -26 44 -54 130 -26
78 -52 152 -57 163 -5 11 -60 171 -123 355 -63 184 -132 387 -154 450 l-39
115 -262 3 c-218 2 -261 0 -261 -12z"/>
</g>
</svg>
